<svg width="402" height="402" viewBox="0 0 402 402" fill="none" xmlns="http://www.w3.org/2000/svg">
<rect width="402" height="402" fill="white"/>
<path d="M176.155 145.247C157.927 145.196 140.18 139.201 125.439 128.118C112.156 118.109 89.5912 98.6354 87.7327 81.0392C87.3963 78.366 87.6248 75.6491 88.4025 73.076C89.1802 70.5029 90.4885 68.1349 92.2373 66.1352C95.9439 61.7931 101.099 59.3616 107.557 58.9382C108.219 58.9382 108.901 58.8731 109.594 58.8731C121.249 58.8731 136.359 65.321 150.797 76.1544C149.715 62.7484 153.517 52.9788 161.623 49.6246H161.707C163.063 49.0188 164.507 48.6519 165.98 48.5391H166.736C175.21 48.5391 181.815 57.2774 186.687 67.4704C194.929 44.2947 208.863 23.5832 223.585 22.5845H224.635C226.774 22.5812 228.892 23.0242 230.861 23.8871C251.452 32.9403 242.716 73.94 235.229 94.3585C227.307 116.091 211.437 133.733 191.044 143.478L189.679 144.162L188.125 144.379C186.025 144.694 183.778 144.922 181.605 145.063C179.767 145.182 177.951 145.247 176.155 145.247Z" fill="#1D1D1B"/>
<path d="M180.88 134.229C163.289 135.363 145.868 130.103 131.634 119.358C111.977 104.53 99.1776 89.3978 98.1696 79.8671C98.0042 78.6996 98.0937 77.5086 98.4317 76.3816C98.7696 75.2545 99.3474 74.22 100.123 73.354C101.939 71.183 104.596 70.0975 108.218 69.8152C119.769 69.0554 137.913 78.1085 153.495 92.3287L168.332 105.898L163.176 86.1196C159.753 72.9524 160.782 61.663 165.528 59.6874L165.759 59.5897C166.028 59.4617 166.316 59.381 166.61 59.3509C169.225 59.1772 175.588 65.4949 181.552 83.2321L187.925 102.12L192.924 82.7871C200.347 54.0536 215.1 34.1019 224.225 33.5049C225.09 33.4437 225.958 33.5962 226.755 33.9499C236.751 38.292 234.105 66.7649 225.39 90.5702C218.435 109.648 204.504 125.133 186.602 133.687C184.712 133.904 182.791 134.11 180.88 134.229Z" fill="url(#paint0_linear)"/>
<path d="M216.234 380C211.393 379.915 206.719 378.153 202.962 374.996C198.829 377.382 194.161 378.602 189.427 378.534C183.126 378.599 176.979 376.52 171.934 372.618C167.856 369.402 164.106 365.765 160.74 361.763C158.94 362.714 156.945 363.205 154.923 363.196C150.083 363.196 146.04 360.471 143.373 358.42C120.63 340.639 97.0251 310.473 80.2668 277.777C78.5028 274.325 70.4596 257.977 69.5251 244.224C64.357 237.483 60.5087 229.766 58.1953 221.504C56.9394 216.981 56.7279 212.217 57.5778 207.594C58.4276 202.971 60.3151 198.619 63.0884 194.888C54.9613 185.552 51.2862 171.82 54.1318 157.655C58.3318 136.9 73.6832 119.803 82.4823 111.455C86.3884 107.743 90.515 105.865 94.7466 105.865C96.6474 105.819 98.5366 106.182 100.295 106.929C102.054 107.676 103.643 108.792 104.963 110.207C109.159 105.545 114.091 101.654 119.548 98.7005C124.644 95.9457 130.304 94.494 136.054 94.467C142.199 94.4807 148.217 96.2786 153.422 99.6557C155.692 95.0721 158.884 91.0429 162.782 87.8378C166.681 84.6328 171.198 82.3259 176.029 81.0718C179.069 80.2409 182.198 79.8142 185.342 79.8017C189.798 79.8058 194.208 80.7243 198.318 82.5038C202.428 84.2833 206.155 86.8885 209.283 90.1683C210.2 88.3824 211.321 86.7169 212.622 85.2076C214.539 82.9792 216.897 81.2042 219.537 80.0034C222.177 78.8026 225.037 78.2044 227.921 78.2494C229.329 78.2571 230.733 78.3842 232.121 78.6294C243.621 80.7264 254.207 86.4655 262.414 95.0531C262.888 94.2135 263.436 93.4213 264.052 92.6867C265.275 91.1898 266.799 89.9876 268.519 89.1644C270.238 88.3411 272.111 87.9169 274.006 87.9213C274.877 87.9219 275.745 88.0092 276.6 88.1819C280.8 89.0177 287.867 92.1114 295.574 102.663C296.417 102.488 297.276 102.401 298.136 102.402C299.341 102.405 300.541 102.569 301.706 102.891L302.063 102.988C304.215 100.889 307.063 99.7233 310.022 99.7317C311.725 99.7404 313.408 100.11 314.968 100.817C338.394 111.271 346.174 146.93 348.568 174.99C349.618 187.115 350.49 214.731 338.583 225.26C338.583 225.911 338.499 226.552 338.436 227.192C334.236 269.18 316.742 314.999 292.707 346.761C291.584 348.238 289.085 351.549 285.221 353.101C282.196 360.352 277.587 366.322 269.565 366.474H269.313C267.568 366.492 265.835 366.164 264.21 365.508C261.863 368.119 258.704 369.794 255.284 370.241C254.241 370.399 253.189 370.482 252.134 370.491C250.777 370.494 249.424 370.334 248.102 370.013C247.934 370.23 247.745 370.447 247.556 370.664C245.886 372.608 243.838 374.165 241.545 375.233C239.252 376.301 236.767 376.857 234.252 376.863H233.853C231.579 376.815 229.35 376.2 227.354 375.072C225.401 377.444 222.722 379.057 219.762 379.642C218.6 379.878 217.419 379.998 216.234 380V380Z" fill="#1D1D1B"/>
<path d="M336.682 174.849C334.949 154.496 328.974 118.403 309.381 109.718C304.372 107.482 308.94 125.285 309.958 130.712L309.496 130.625C307.512 125.73 302.356 113.605 297.642 112.335C293.652 111.249 293.442 116.785 294.723 123.45L294.334 123.374C289.945 113.605 281.44 99.4278 273.197 97.7887C266.761 96.5186 268.409 114.94 270.268 127.901C261.867 108.068 248.669 91.7641 228.928 88.2796C211.729 85.2293 212.999 113.008 214.658 129.236C212.086 109.903 199.958 84.3935 177.194 90.4941C163.848 94.0545 158.251 106.169 156.351 120.28C151.069 106.364 136.652 99.9923 122.866 107.254C113.415 112.226 104.837 122.256 100.983 133.404C100.112 124.492 97.5076 109.425 88.1204 118.359C77.2107 128.715 66.0699 143.467 62.9199 158.773C60.0743 173.069 65.9124 189.286 80.4762 193.759L80.5287 194.529C79.5942 194.801 78.5547 194.898 77.5572 195.192C68.401 197.819 64.4844 208.684 66.8259 217.51C69.1202 225.546 73.1037 232.96 78.4917 239.22C77.7252 249.804 85.6948 267.031 88.0574 271.655C102.086 299.021 124.01 329.784 148.276 348.726C160.593 358.355 155.049 338.577 151.647 328.438C159.868 343.179 164.247 352.938 176.847 362.936C185.951 370.176 203.014 366.333 200.588 354.61C205.261 365.606 211.729 368.862 216.297 367.907C220.108 367.126 220.875 358.138 219.699 350.398C218.838 344.71 218.649 343.809 217.452 338.012L217.935 337.947C220.549 347.576 226.03 364.77 232.635 364.922C238.442 365.052 242.379 358.181 241.592 349.54C241.361 346.924 241.077 343.765 240.657 340.368C244.406 357.606 247.451 359.125 252.354 358.409C258.024 357.573 259.221 346.078 259.589 334.767C259.778 329.198 259.589 331.912 259.284 326.376L259.788 326.115C260.754 333.714 260.555 354.675 267.916 354.534C273.418 354.425 276.085 342.387 278.416 333.399C277.649 340.759 278.227 345.339 283.036 338.978C306.451 308.03 322.664 264.491 326.591 225C326.841 222.42 326.728 219.817 326.255 217.271C327.212 217.434 328.196 217.274 329.058 216.815C337.732 212.44 337.732 186.649 336.682 174.849ZM245.561 170.605H246.411C248.816 170.518 251.777 175.131 251.966 178.203C252.092 180.374 251.346 182.155 249.099 182.285C246.296 182.426 244.017 178.496 243.744 175.131C243.587 172.928 244.28 171.386 245.571 170.605H245.561ZM250.811 200.663L251.861 200.304C252.911 205.96 255.158 216.739 258.717 224.403C256.449 223.836 254.121 223.555 251.787 223.567C252.795 216.283 251.63 206.644 250.811 200.663ZM215.026 132.655C215.257 134.739 215.478 136.52 215.625 137.844C216.318 144.357 218.565 163.082 222.271 182.22C219.121 175.012 214.553 168.933 207.571 166.827C207.518 166.339 207.487 166.089 207.434 165.601C215.53 155.842 216.118 144.444 215.026 132.655ZM220.066 235.779C227.878 235.062 229.873 219.865 229.212 210.693C231.595 218.215 234.283 224.566 237.265 228.636C228.309 237.19 227.889 255.361 229.317 271.34C227.07 252.886 217.441 234.085 199.118 232.425C200.168 224.218 199.192 212.885 198.362 206.872C197.575 201.108 196.325 194.931 195.338 189.395L196.063 189.254C199.622 201.303 207.35 236.919 220.066 235.735V235.779ZM197.396 163.136C194.393 163.766 191.695 159.706 191.191 155.429C190.802 152.173 192.388 150.219 193.889 149.893C196.598 149.307 199.412 153.975 199.864 157.991C200.105 160.097 199.937 162.55 197.396 163.093V163.136ZM99.2716 150.859C100.679 160.184 105.488 164.406 112.859 161.845C113.972 161.465 116.712 159.077 117.553 158.317C115.143 170.446 114.717 182.906 116.292 195.181C117.826 206.937 122.866 225.043 132.043 236.278C115.904 238.579 118.561 255.057 123.244 268.648C125.869 276.247 128.998 283.845 132.452 291.39C127.738 286.136 122.225 282.38 115.862 281.967L115.484 281.349C118.634 279.796 122.299 275.802 116.838 261.039C115.535 257.59 113.947 254.263 112.092 251.095C122.593 243.084 118.666 217.314 116.849 207.599C113.793 191.316 107.052 167.902 87.1124 165.264C87.1124 164.938 87.1124 164.776 87.1124 164.45C92.4612 161.373 96.7208 156.612 99.2716 150.859V150.859ZM107.598 276.909C105.383 276.496 102.464 272.99 101.162 270.135C100.29 268.236 100.563 266.683 101.823 266.879C103.724 267.15 107.367 271.329 108.575 274.065C109.352 275.812 109.394 277.256 107.598 276.909V276.909ZM119.642 297.403C117.542 296.795 114.392 293.061 112.995 290.217C112.05 288.296 112.229 286.809 113.499 287.113C115.389 287.558 119.296 292.019 120.598 294.787C121.427 296.578 121.427 297.924 119.642 297.403ZM156.771 272.252L156.477 271.329C161.853 269.831 168.458 269.842 165.034 253.809C164.154 249.631 161.934 245.882 158.734 243.171C166.389 235.833 165.244 217.531 163.606 208.598C160.068 189.362 153.369 167.587 142.207 151.489C148.801 153.052 153.316 148.395 155.857 142.381C156.382 151.294 157.527 159.674 158.356 165.937C160.215 180.049 170.6 220.614 182.885 236.148C171.492 244.919 174.075 266.857 177.96 283.91C172.941 276.996 166.022 272.035 156.771 272.252ZM181.1 327.95C184.995 326.006 186.896 322.457 187.641 318.43C189.594 324.65 191.663 330.848 193.858 336.981C191.075 332.639 187.274 329.61 181.887 330.609L181.1 327.95ZM215.226 305.36C212.957 305.773 210.469 301.496 209.629 297.284C208.999 294.125 210.028 292.345 211.214 292.139C213.314 291.769 216.465 296.318 217.179 300.302C217.546 302.473 217.158 305.045 215.226 305.404V305.36ZM224.833 309.094C224.76 308.562 224.718 308.291 224.634 307.759C230.251 297.696 230.745 287.058 229.821 276.138C230.682 283.682 231.816 290.413 232.446 294.917C232.981 298.728 235.029 311.667 237.696 325.789C235.365 318.223 231.49 311.558 224.833 309.159V309.094ZM262.067 290.641C259.872 291.574 257.972 287.938 257.688 283.943C257.478 280.947 258.738 278.982 259.883 278.57C261.983 277.821 264.377 281.609 264.535 285.311C264.619 287.297 263.936 289.87 262.067 290.706V290.641ZM281.02 316.693C281.776 306.641 281.135 293.116 270.877 291.943V290.706C276.513 282.088 279.889 272.105 280.673 261.733C283.55 269.061 288.202 274.76 295.521 272.241C287.971 286.168 283.907 301.224 281.03 316.682L281.02 316.693ZM306.22 240.957C305.601 230.34 298.261 217.542 287.131 219.312C278.794 220.636 276.536 231.198 276.463 239.274C275.069 236.543 273.301 234.035 271.213 231.828C280.138 225.608 282.595 198.654 282.374 188.223C282.374 187.539 282.374 186.844 282.322 186.149C288.171 207.056 295.909 226.031 304.372 223.599C311.282 221.602 313.508 201.585 313.917 192.608L314.736 192.521C315.573 198.059 317.024 203.479 319.062 208.674C318.867 208.699 318.674 208.739 318.485 208.793C307.417 211.854 305.916 229.841 306.231 240.946L306.22 240.957Z" fill="url(#paint1_linear)"/>
<path d="M102.527 74.2119C104.029 74.8958 100.784 85.067 106.475 91.515C101.005 87.5529 98.7683 80.5513 100.774 76.3178C101.414 74.8632 102.013 73.9731 102.527 74.2119Z" fill="white"/>
<path d="M172.605 69.5329C171.796 69.7934 169.77 63.2912 165.412 62.3251C167.035 62.2344 168.638 62.7246 169.952 63.7132C171.266 64.7018 172.21 66.1284 172.626 67.7527C172.878 68.7405 172.878 69.4352 172.605 69.5329Z" fill="white"/>
<path d="M229.37 60.0233C228.803 61.2391 228.267 62.0206 228.026 61.6841C227.238 60.5986 231.102 49.7435 228.824 40.8857C231.417 46.9646 231.522 55.4424 229.37 60.0233Z" fill="white"/>
<path d="M300.1 230.742C300.1 231.719 299.879 232.62 299.543 232.718C298.094 233.13 297.128 224.967 289.799 222.948C295.899 223.306 300.089 227.03 300.1 230.786" fill="white"/>
<path d="M321.718 127.206C321.865 128.172 321.771 128.769 321.603 128.682C320.952 128.335 319.282 120.736 315.219 115.949C318.358 118.75 321.193 123.754 321.718 127.206Z" fill="white"/>
<path d="M304.026 124.85C304.058 125.253 304 125.657 303.858 126.033C303.228 125.719 302.22 119.52 299.049 116.068C301.705 118.196 303.847 122.104 304.026 124.85Z" fill="white"/>
<path d="M286.418 115.559C286.806 116.85 286.932 117.795 286.544 117.73C285.242 117.502 280.853 106.875 273.324 102.033C279.236 104.595 284.937 110.706 286.418 115.559Z" fill="white"/>
<path d="M252.837 106.483C253.163 107.797 252.837 109.11 252.606 108.98C247.135 106.472 241.539 96.1384 233.475 92.2197C240.804 94.0542 251 99.1019 252.837 106.483Z" fill="white"/>
<path d="M245.918 184.326C241.487 182.491 238.673 177.313 239.104 173.254C239.261 171.821 239.461 170.844 239.996 170.92C241.067 171.061 240.857 180.657 245.918 184.326Z" fill="white"/>
<path d="M215.121 178.746C215.289 179.983 215.3 181.004 214.932 181.058C213.588 181.253 211.047 170.898 204.705 168.813C207.252 169.068 209.648 170.176 211.528 171.97C213.409 173.763 214.671 176.142 215.121 178.746V178.746Z" fill="white"/>
<path d="M186.749 155.484C188.041 155.212 190.109 165.503 196.63 167.685C191.317 167.49 186.896 162.92 186.445 158.219C186.298 156.656 186.319 155.571 186.749 155.484Z" fill="white"/>
<path d="M196.85 103.26C197.249 104.823 196.672 106.18 196.315 106.093C190.728 104.693 185.153 94.4671 174.873 94.4997C182.612 92.5349 194.666 94.7059 196.85 103.26Z" fill="white"/>
<path d="M146.229 118.109C146.45 119.781 146.229 121.366 145.61 121.627C142.355 122.897 137.966 110.185 125.586 112.519C135.992 108.731 145.389 111.911 146.229 118.109Z" fill="white"/>
<path d="M90.6934 170.518C96.8465 169.845 102.139 176.206 103.819 182.393C104.27 184.206 103.441 185.313 102.979 185.444C101.141 185.997 98.033 172.266 90.6934 170.518Z" fill="white"/>
<path d="M96.5212 130.94C96.3742 133.111 96.0277 134.913 95.5447 135.206C93.2032 136.618 92.7726 121.952 87.1445 123.559C92.7936 119.901 96.9937 123.537 96.5212 130.94Z" fill="white"/>
<path d="M96.562 270.2C96.1315 269.017 96.0895 268.583 96.3205 268.637C96.898 268.8 99.8486 275.346 103.744 278.472C100.603 276.52 98.101 273.639 96.562 270.2V270.2Z" fill="white"/>
<path d="M110.087 290.445C109.782 289.675 109.677 289.24 109.824 289.295C110.423 289.523 113.164 295.308 116.692 298.283C113.842 296.339 111.559 293.629 110.087 290.445V290.445Z" fill="white"/>
<path d="M135.078 307.617C133.304 306.923 127.392 293.234 118.341 286.428C125.418 290.119 132.978 298.988 134.868 305.001C135.32 306.575 135.456 307.769 135.078 307.617Z" fill="white"/>
<path d="M175.104 292.247C173.004 292.247 166.357 280.459 155.595 276.735C164.068 278.016 172.71 283.965 174.8 289.381C175.451 291.097 175.577 292.247 175.104 292.247Z" fill="white"/>
<path d="M196.316 349.898C194.972 349.432 192.116 340.671 185.228 335.461C191.045 338.348 195.864 343.819 196.526 347.988C196.715 349.182 196.589 349.985 196.316 349.898Z" fill="white"/>
<path d="M156.95 247.871C155.018 248.598 144.937 239.73 133.576 239.893C141.976 238.21 152.057 240.87 155.742 245.32C156.918 246.666 157.401 247.708 156.95 247.871Z" fill="white"/>
<path d="M196.599 239.687C203.812 240.479 211.971 243.258 213.682 250.119C214.06 251.628 213.514 252.952 213.157 252.876C208.537 251.964 202.92 244.593 195.748 241.022C196.073 240.607 196.358 240.16 196.599 239.687V239.687Z" fill="white"/>
<path d="M205.041 299.075C204.716 297.49 204.611 296.426 204.957 296.383C206.007 296.274 208.968 307.238 214.407 310.136C210.155 309.485 206.018 303.851 205.041 299.075Z" fill="white"/>
<path d="M231.459 329.784C230.409 330.11 228.309 319.114 222.702 316.758C227.154 317.117 230.997 321.838 231.585 327.233C231.732 328.579 231.743 329.687 231.459 329.784Z" fill="white"/>
<path d="M255.022 283.357C255.348 281.859 255.663 280.85 255.988 280.817C256.944 280.719 255.526 290.923 259.138 293.539C255.684 293.007 254.046 287.862 255.022 283.357Z" fill="white"/>
<path d="M276.421 304.817C276.337 306.033 276.179 307.075 275.875 307.26C274.825 307.933 274.562 298.174 269.176 297.62C273.68 296.589 276.725 299.922 276.421 304.817Z" fill="white"/>
<path d="M266.812 242.064C263.862 242.737 260.859 234.096 249.046 231.046C249.161 230.872 249.266 230.688 249.371 230.492C259.704 231.089 267.411 235.518 267.768 239.556C267.894 240.967 267.453 241.912 266.812 242.064Z" fill="white"/>
<path d="M323.62 222.438C323.557 223.285 323.305 223.936 323.106 224.001C322.287 224.283 322.129 217.488 317.855 215.317C319.467 215.627 320.923 216.507 321.975 217.807C323.027 219.106 323.609 220.743 323.62 222.438V222.438Z" fill="white"/>
<defs>
<linearGradient id="paint0_linear" x1="156.183" y1="35.1332" x2="192.933" y2="135.316" gradientUnits="userSpaceOnUse">
<stop stop-color="#11998E"/>
<stop offset="1" stop-color="#38EF7D"/>
</linearGradient>
<linearGradient id="paint1_linear" x1="182.024" y1="100.275" x2="244.106" y2="371.312" gradientUnits="userSpaceOnUse">
<stop stop-color="#EE0979"/>
<stop offset="1" stop-color="#FF6A00"/>
</linearGradient>
</defs>
</svg>
